<svg width="150" height="32" viewBox="0 0 150 32" fill="none" xmlns="http://www.w3.org/2000/svg">
<path d="M7.61259 27.1689L1.69894 20.6008L3.54232 19.7846L8.73811 25.6207L7.81642 26.0288L7.08642 18.2153L8.73229 17.4865L13.9391 23.3177L13.0503 23.7113L12.2764 15.9172L13.9771 15.1641L14.8654 23.9575L12.9562 24.8028L8.37103 19.6938L8.87576 19.4703L9.5218 26.3236L7.61259 27.1689Z" fill="#3093FD"/>
<path d="M26.1067 11.0397L27.9583 10.4477L30.5166 18.4486L28.6649 19.0407L26.1067 11.0397ZM25.0302 20.2029L23.1786 20.7949L20.6203 12.794L22.4719 12.2019L25.0302 20.2029ZM27.7532 15.7164L23.8442 16.9663L23.3435 15.4004L27.2525 14.1505L27.7532 15.7164Z" fill="#3093FD"/>
<path d="M36.3468 16.8155L38.2149 7.81064L40.0908 7.4015L45.5505 14.8082L43.5573 15.2429L38.9756 8.65185L39.726 8.4882L38.2931 16.391L36.3468 16.8155ZM37.7923 14.658L37.9819 13.1059L42.2027 12.1854L43.0331 13.5149L37.7923 14.658Z" fill="#3093FD"/>
<path d="M53.7453 13.5338L52.8866 6.77208L50.22 7.11071L50.0204 5.53933L57.2821 4.61716L57.4817 6.18854L54.8151 6.52717L55.6738 13.2889L53.7453 13.5338Z" fill="#3093FD"/>
<path d="M64.2253 12.4375L64.1696 11.1787L67.2712 7.97853C67.5167 7.73545 67.6953 7.51934 67.8071 7.33022C67.9188 7.14109 67.9913 6.96972 68.0246 6.8161C68.0658 6.66213 68.0836 6.52121 68.0779 6.39333C68.0631 6.05766 67.9359 5.80704 67.6963 5.64146C67.4644 5.46754 67.1287 5.3903 66.6891 5.40975C66.3374 5.42531 66.0128 5.50774 65.7151 5.65704C65.4254 5.80599 65.183 6.02892 64.9879 6.32583L63.533 5.4773C63.8315 4.98363 64.2622 4.5842 64.8253 4.27902C65.3884 3.97383 66.0455 3.80463 66.7968 3.77139C67.4202 3.74381 67.9682 3.82367 68.441 4.01096C68.9214 4.1899 69.2976 4.45754 69.5696 4.81386C69.8496 5.16984 70.0009 5.60357 70.0235 6.11507C70.0355 6.38681 70.0116 6.66013 69.9517 6.93505C69.8994 7.20162 69.7759 7.48735 69.5812 7.79226C69.3945 8.09681 69.1135 8.44157 68.7381 8.82653L66.1646 11.4749L65.7617 10.784L70.4971 10.5745L70.5671 12.157L64.2253 12.4375Z" fill="#3093FD"/>
<path d="M79.6855 12.1517L77.4192 3.60918L79.4319 3.72372L81.3934 11.2874L80.387 11.2301L83.3016 3.94392L85.0987 4.04618L87.0722 11.6105L86.1018 11.5553L88.9685 4.26638L90.8255 4.37205L87.6047 12.6024L85.5201 12.4837L83.7704 5.84562L84.3215 5.87698L81.7701 12.2704L79.6855 12.1517Z" fill="#3093FD"/>
<path d="M95.3558 13.3997L100.423 5.72476L102.317 6.03863L104.649 14.9396L102.637 14.6061L100.818 6.78772L101.576 6.91327L97.321 13.7254L95.3558 13.3997ZM97.4969 11.93L98.2473 10.5582L102.509 11.2644L102.789 12.8068L97.4969 11.93Z" fill="#3093FD"/>
<path d="M112.734 16.7872L114.438 10.1876L111.835 9.5157L112.231 7.98198L119.319 9.81163L118.923 11.3454L116.32 10.6735L114.616 17.2731L112.734 16.7872Z" fill="#3093FD"/>
<path d="M127.187 21.3001C126.575 21.0853 126.04 20.787 125.58 20.4051C125.131 20.0183 124.779 19.5724 124.524 19.0673C124.269 18.5622 124.12 18.0221 124.076 17.4471C124.04 16.8747 124.126 16.2903 124.336 15.6941C124.545 15.0978 124.843 14.5877 125.23 14.1639C125.624 13.7426 126.078 13.4147 126.593 13.1801C127.115 12.9482 127.671 12.8256 128.261 12.8124C128.853 12.7916 129.459 12.8899 130.078 13.1074C130.765 13.3487 131.341 13.6869 131.807 14.122C132.284 14.5523 132.63 15.0639 132.845 15.6569L131.286 16.33C131.123 15.9251 130.902 15.5888 130.623 15.3212C130.347 15.046 130.012 14.8395 129.62 14.7015C129.25 14.5716 128.889 14.5126 128.537 14.5247C128.185 14.5367 127.856 14.6161 127.55 14.763C127.244 14.9099 126.973 15.1155 126.736 15.3799C126.506 15.6469 126.325 15.9691 126.193 16.3465C126.06 16.7239 126 17.0885 126.012 17.4404C126.031 17.7949 126.114 18.1252 126.261 18.4312C126.408 18.7372 126.615 19.0049 126.882 19.2344C127.149 19.4639 127.468 19.6436 127.837 19.7736C128.23 19.9115 128.619 19.9633 129.004 19.929C129.392 19.8872 129.777 19.7555 130.16 19.534L130.956 21.0346C130.417 21.3624 129.825 21.5489 129.182 21.5942C128.546 21.6421 127.881 21.5441 127.187 21.3001Z" fill="#3093FD"/>
<path d="M145.155 19.4618L146.923 20.2713L143.425 27.9084L141.658 27.099L145.155 19.4618ZM138.188 25.51L136.421 24.7006L139.918 17.0634L141.686 17.8729L138.188 25.51ZM143.223 24.0277L139.491 22.3188L140.176 20.8241L143.907 22.533L143.223 24.0277Z" fill="#3093FD"/>
</svg>
